# xmcd
# 
# Track frame offsets:
#     187
#     19307
#     39072
#     60647
#     73450
#     81742
#     105487
#     128175
#     140772
#     163962
#     183177
#     199305
#     219360
# 
# Disc length: 3152
# 
# Revision: 0
# Processed by: cddbd v1.5.2PL0 Copyright (c) Steve Scherf et al.
# Submitted via: fre:ac v1.0.31
# 
DISCID=c60c4e0d
DTITLE=ビクターエンタテインメント - 実写映画「ときめきメモリアル」オリジナルサウンドトラック
DYEAR=1997
DGENRE=Soundtrack
TTITLE0=セピアの夏のフォトグラフ（Orchestra Version）
TTITLE1=働くキリギリス／広瀬香美
TTITLE2=幸せのリズム／広瀬香美
TTITLE3=誰もいない海（Life and Days）
TTITLE4=ときめきの朝
TTITLE5=Good Luck!／広瀬香美
TTITLE6=幸せのはじまり／広瀬香美
TTITLE7=アベマリア
TTITLE8=誰もいない海／広瀬香美
TTITLE9=働くキリギリス（Orchestra Version）
TTITLE10=誰もいない海（Cry and Sigh）
TTITLE11=セピアの夏のフォトグラフ／吹石一恵
TTITLE12=セピアの夏のフォトグラフ（In Memories）
EXTD=
EXTT0=
EXTT1=
EXTT2=
EXTT3=
EXTT4=
EXTT5=
EXTT6=
EXTT7=
EXTT8=
EXTT9=
EXTT10=
EXTT11=
EXTT12=
PLAYORDER=
